<svg width="21" height="20" viewBox="0 0 21 20" fill="none" xmlns="http://www.w3.org/2000/svg">
              <path
                d="M6.5625 11.25C6.9106 11.25 7.24444 11.1183 7.49058 10.8839C7.73672 10.6495 7.875 10.3315 7.875 10C7.875 9.66848 7.73672 9.35054 7.49058 9.11612C7.24444 8.8817 6.9106 8.75 6.5625 8.75C6.2144 8.75 5.88056 8.8817 5.63442 9.11612C5.38828 9.35054 5.25 9.66848 5.25 10C5.25 10.3315 5.38828 10.6495 5.63442 10.8839C5.88056 11.1183 6.2144 11.25 6.5625 11.25ZM7.875 13.75C7.875 14.0815 7.73672 14.3995 7.49058 14.6339C7.24444 14.8683 6.9106 15 6.5625 15C6.2144 15 5.88056 14.8683 5.63442 14.6339C5.38828 14.3995 5.25 14.0815 5.25 13.75C5.25 13.4185 5.38828 13.1005 5.63442 12.8661C5.88056 12.6317 6.2144 12.5 6.5625 12.5C6.9106 12.5 7.24444 12.6317 7.49058 12.8661C7.73672 13.1005 7.875 13.4185 7.875 13.75ZM10.5 11.25C10.8481 11.25 11.1819 11.1183 11.4281 10.8839C11.6742 10.6495 11.8125 10.3315 11.8125 10C11.8125 9.66848 11.6742 9.35054 11.4281 9.11612C11.1819 8.8817 10.8481 8.75 10.5 8.75C10.1519 8.75 9.81806 8.8817 9.57192 9.11612C9.32578 9.35054 9.1875 9.66848 9.1875 10C9.1875 10.3315 9.32578 10.6495 9.57192 10.8839C9.81806 11.1183 10.1519 11.25 10.5 11.25ZM11.8125 13.75C11.8125 14.0815 11.6742 14.3995 11.4281 14.6339C11.1819 14.8683 10.8481 15 10.5 15C10.1519 15 9.81806 14.8683 9.57192 14.6339C9.32578 14.3995 9.1875 14.0815 9.1875 13.75C9.1875 13.4185 9.32578 13.1005 9.57192 12.8661C9.81806 12.6317 10.1519 12.5 10.5 12.5C10.8481 12.5 11.1819 12.6317 11.4281 12.8661C11.6742 13.1005 11.8125 13.4185 11.8125 13.75ZM14.4375 11.25C14.7856 11.25 15.1194 11.1183 15.3656 10.8839C15.6117 10.6495 15.75 10.3315 15.75 10C15.75 9.66848 15.6117 9.35054 15.3656 9.11612C15.1194 8.8817 14.7856 8.75 14.4375 8.75C14.0894 8.75 13.7556 8.8817 13.5094 9.11612C13.2633 9.35054 13.125 9.66848 13.125 10C13.125 10.3315 13.2633 10.6495 13.5094 10.8839C13.7556 11.1183 14.0894 11.25 14.4375 11.25Z"
                fill="black" />
              <path fill-rule="evenodd" clip-rule="evenodd"
                d="M19.6875 4.375C19.6875 3.5462 19.3418 2.75134 18.7264 2.16529C18.1111 1.57924 17.2765 1.25 16.4062 1.25L4.59375 1.25C3.72351 1.25 2.88891 1.57924 2.27356 2.16529C1.6582 2.75134 1.3125 3.5462 1.3125 4.375L1.3125 15.625C1.3125 16.4538 1.6582 17.2487 2.27356 17.8347C2.88891 18.4208 3.72351 18.75 4.59375 18.75L16.4062 18.75C17.2765 18.75 18.1111 18.4208 18.7264 17.8347C19.3418 17.2487 19.6875 16.4538 19.6875 15.625L19.6875 4.375ZM2.625 6.25L18.375 6.25L18.375 15.625C18.375 16.6625 17.4956 17.5 16.4062 17.5L4.59375 17.5C4.07161 17.5 3.57085 17.3025 3.20163 16.9508C2.83242 16.5992 2.625 16.1223 2.625 15.625L2.625 6.25ZM4.59375 2.5L16.4062 2.5C17.4956 2.5 18.375 3.3375 18.375 4.375L18.375 5L2.625 5L2.625 4.375C2.625 3.3375 3.50438 2.5 4.59375 2.5Z"
                fill="black" />
            </svg>